<svg width="133" height="40" viewBox="0 0 133 40" fill="none" xmlns="http://www.w3.org/2000/svg">
<path d="M5.98444 27.1998C4.74628 27.1998 3.66289 26.7871 2.73427 26.0132C1.80565 25.2394 1.08339 24.156 0.670671 22.9178C0.206362 21.6281 0 20.2867 0 18.739C0 17.1913 0.10318 16.3143 0.36113 15.2825C0.61908 14.2507 0.98021 13.3221 1.49611 12.4967C2.01201 11.6712 2.63109 11.0521 3.45653 10.6394C4.28197 10.1751 5.21059 9.96875 6.24239 9.96875C7.27419 9.96875 7.01624 9.96875 7.48055 10.0719C7.94486 10.1751 8.46076 10.2783 8.97666 10.4846C9.49256 10.691 9.95687 10.949 10.2664 11.3101C10.6275 11.6712 10.7823 12.1355 10.7823 12.5998C10.7823 13.0641 10.4728 13.5285 9.85369 13.5285C9.2346 13.5285 9.59574 13.5285 9.44097 13.4253C9.33779 13.3737 9.23461 13.2705 9.13143 13.1673C9.02825 13.0641 8.97666 12.9094 8.92507 12.8062C8.87348 12.703 8.82189 12.5482 8.71871 12.3419C8.61553 12.1355 8.56394 12.0323 8.51235 11.9292C8.2544 11.3617 7.99645 10.8974 7.63532 10.5878C7.27419 10.2783 6.86147 10.0719 6.24239 10.0719C5.62331 10.0719 5.10741 10.1751 4.6431 10.4331C4.17879 10.691 3.76607 11.0521 3.45653 11.4649C3.14699 11.8776 2.88904 12.3935 2.68268 12.961C2.47632 13.5285 2.32155 14.0959 2.16678 14.7666C2.0636 15.4373 1.96042 16.0564 1.90883 16.6239C1.90883 17.1913 1.80565 17.8104 1.80565 18.4295C1.80565 19.4097 1.90883 20.2867 2.01201 21.2154C2.16678 22.144 2.42473 22.9694 2.73427 23.8465C3.0954 24.6719 3.55971 25.3941 4.17879 25.9101C4.79787 26.4259 5.52013 26.6839 6.34557 26.6839C8.15122 26.6839 9.49255 25.7553 10.3696 23.898H10.6275C9.64733 26.0648 8.09963 27.1482 5.93285 27.1482L5.98444 27.1998Z" fill="#362918"/>
<path d="M13.4149 11.7743C13.2601 11.5163 13.1569 11.3615 13.0538 11.2584C13.0538 11.1552 12.899 11.0004 12.7442 10.8456C12.5894 10.6909 12.4863 10.5361 12.3315 10.4329C12.1767 10.3297 12.022 10.2782 11.8672 10.2266H15.6333L15.4785 17.0364V21.5764C15.4785 21.9891 15.5817 22.4534 15.6848 22.9693C15.788 23.4852 15.8912 23.9495 16.0976 24.3622C16.2523 24.7749 16.5103 25.1877 16.7166 25.5488C16.9746 25.9099 17.2841 26.2195 17.6969 26.4258C18.1096 26.6322 18.5223 26.7354 18.9866 26.7354C19.4509 26.7354 20.1732 26.529 20.7407 26.2195C21.3082 25.8583 21.7725 25.4972 22.1336 25.0329C22.4947 24.5686 22.8043 24.0527 23.1138 23.5368V17.5523C23.1138 16.9848 23.1138 16.3142 23.217 15.6435V13.3735C23.217 13.064 23.217 12.7545 23.1138 12.5481C23.0106 12.3418 23.0106 12.1354 22.9074 11.8774C22.4947 11.2584 22.2368 10.8456 22.0304 10.6393C21.8241 10.4845 21.6177 10.3297 21.4113 10.2781H25.1258L24.971 17.5007V20.9573C24.971 21.9375 24.971 22.8661 25.0742 23.6915C25.0742 24.517 25.229 25.0845 25.3838 25.4972C25.7965 26.1679 26.364 26.5806 27.0346 26.7869C25.4354 26.9933 24.1456 27.0449 23.217 27.0449V24.3106C22.7527 25.1361 22.1336 25.8583 21.4113 26.4258C20.6891 26.9933 19.8636 27.2513 18.935 27.2513C18.0064 27.2513 17.2841 27.0965 16.6135 26.7354C15.9428 26.4258 15.4269 25.9615 15.0142 25.394C14.6015 24.8265 14.2919 24.1559 14.1371 23.4336C13.9308 22.7113 13.8276 21.8343 13.8792 20.9573V13.5799C13.8792 13.064 13.7244 12.4965 13.5181 11.8774L13.4149 11.7743Z" fill="#362918"/>
<path d="M29.3024 11.4626C28.8897 10.7919 28.3738 10.3792 27.7031 10.1728C29.354 9.96646 30.6438 9.86328 31.4692 9.86328V14.3C31.7787 12.9587 32.243 11.8753 32.9653 11.0499C33.6876 10.2244 34.5646 9.91487 35.648 10.0181C36.0607 10.0181 36.4734 10.2244 36.8345 10.4824C37.1957 10.7919 37.402 11.1014 37.3504 11.4626C37.3504 11.8237 37.1957 12.1332 36.9893 12.3912C36.783 12.6491 36.525 12.7523 36.2671 12.7523C36.0091 12.7523 35.9059 12.6491 35.8027 12.4944C35.648 12.3396 35.5448 12.1848 35.39 12.0301C35.2353 11.8753 35.0805 11.7205 34.8225 11.5658C34.5646 11.411 34.2035 11.3594 33.7907 11.3594C33.378 11.3594 33.2748 11.4626 33.0685 11.6689C32.8621 11.8753 32.6558 12.1332 32.501 12.4944C32.3462 12.8555 32.1915 13.2166 32.0883 13.6294C31.9851 14.0421 31.8819 14.5064 31.8303 15.0223C31.8303 15.5898 31.7271 16.0541 31.6756 16.5184C31.6756 16.9827 31.5724 17.4986 31.5724 18.0661V21.5226C31.5724 23.9473 31.6756 25.4435 31.9335 25.9594C32.1399 26.4237 32.501 26.6816 32.9653 26.7848H28.3738C28.8897 26.6816 29.2508 26.3721 29.4056 25.9078C29.6635 25.2887 29.8183 23.6378 29.8183 21.0067C29.8183 18.3756 29.8183 19.8717 29.8183 19.0979V14.3C29.8183 13.9389 29.8183 13.5778 29.8183 13.165C29.8183 12.7523 29.8183 12.4428 29.7151 12.1332C29.612 11.8237 29.612 11.6173 29.5088 11.411H29.354L29.3024 11.4626Z" fill="#362918"/>
<path d="M37.9723 23.0726C37.9723 22.5051 38.0755 21.9376 38.3335 21.4733C38.5398 21.009 38.9009 20.6479 39.3137 20.3383C39.7264 20.0288 40.1907 19.7193 40.7066 19.4613C41.2225 19.2034 41.79 18.9454 42.3575 18.6875C42.9765 18.4295 43.544 18.1715 44.1115 17.862C44.679 17.6041 45.2465 17.2429 45.8656 16.8302C46.4331 16.4175 46.949 15.9532 47.3617 15.4373V14.4055C47.3617 14.0959 47.3617 13.7864 47.2585 13.3737C47.1553 12.961 47.1553 12.6514 47.0522 12.3419C46.949 12.0323 46.8458 11.7744 46.691 11.4649C46.5363 11.1553 46.3815 10.949 46.1751 10.7942C45.9688 10.6394 45.7108 10.4846 45.4013 10.3815C45.0917 10.2783 44.7306 10.2783 44.3695 10.2783C43.8536 10.2783 43.3893 10.4846 42.9765 10.691C42.5638 10.8974 42.2543 11.1553 42.0479 11.4649C41.8416 11.7744 41.6352 12.0839 41.4288 12.4451C41.2225 12.8062 41.0677 13.1157 40.9645 13.3737C40.8614 13.6832 40.655 13.8896 40.4486 14.0959C40.2423 14.3023 40.0359 14.4055 39.778 14.4055C39.52 14.4055 39.2621 14.3023 39.1073 14.1475C38.9525 13.9928 38.9009 13.6832 38.9009 13.3221C38.9009 12.8062 39.1073 12.2903 39.4684 11.8776C39.8296 11.4133 40.3455 11.0521 40.9129 10.7942C41.4804 10.5362 42.0995 10.3299 42.7186 10.1751C43.3377 10.0203 43.9568 9.96875 44.5242 9.96875C45.814 9.96875 46.8974 10.4331 47.826 11.3617C48.6514 12.3419 49.0642 13.6832 49.0642 15.4889V21.886C49.0642 24.0528 49.1673 25.4457 49.3737 26.0132C49.5285 26.4259 49.8896 26.7355 50.4055 26.8387H48.4967C48.3419 26.8387 48.2387 26.7871 48.084 26.7355C47.9292 26.6839 47.826 26.6323 47.7228 26.5291C47.6196 26.4259 47.5681 26.3228 47.4649 26.1164C47.3617 25.9616 47.3101 25.7553 47.2585 25.4973C47.2069 25.2394 47.2069 24.9814 47.2069 24.6203V23.4337C46.949 23.8464 46.3815 24.4139 45.5045 25.033C44.679 25.6521 43.9052 26.1164 43.2861 26.3744C41.532 27.045 40.1907 27.045 39.2621 26.3744C38.3334 25.7037 37.8691 24.6203 37.8691 23.0726H37.9723ZM39.8811 23.0726C39.8811 24.8267 40.5002 25.7037 41.7384 25.8069C42.7186 25.9101 43.8536 25.4973 45.2465 24.6203C46.1751 24.0012 46.8458 23.4337 47.2585 22.8147V15.9016C46.949 16.4175 46.5363 16.8818 45.9688 17.2945C45.4013 17.7072 44.8854 18.0684 44.3695 18.3263C43.8536 18.5843 43.2861 18.8422 42.7702 19.1518C42.2027 19.4613 41.7384 19.7708 41.3257 20.0804C40.9129 20.3899 40.6034 20.8026 40.2939 21.3185C40.0359 21.8344 39.8811 22.4019 39.8811 23.0726Z" fill="#362918"/>
<path d="M50.4004 10.1726C50.9679 10.1726 51.4838 10.0694 51.9481 9.91466C52.4124 9.75989 52.7219 9.55353 53.0315 9.24399C53.2894 8.93445 53.5474 8.67649 53.7021 8.31536C53.8569 8.00583 54.0117 7.59311 54.1149 7.1288C54.218 6.66449 54.2696 6.25177 54.3212 5.83905C54.3728 5.42633 54.4244 5.01361 54.4244 4.44612C54.4244 4.39453 54.8371 4.39453 54.8371 4.39453V9.96625H58.6548V10.4822H54.8371V24.1535C54.8371 25.5464 55.2498 26.2171 56.0237 26.2171C56.7975 26.2171 57.0039 25.9591 57.5198 25.4432C58.0357 24.9273 58.3452 24.3598 58.4484 23.7924L58.6548 23.9987C58.5 24.4114 58.2937 24.8242 58.0873 25.1853C57.8809 25.5464 57.6746 25.8044 57.5198 26.0107C57.365 26.2171 57.1587 26.4235 56.9523 26.5782C56.746 26.733 56.5396 26.8362 56.3848 26.9394C56.2301 27.0425 56.0753 27.0941 55.8689 27.0941C55.6626 27.0941 55.5078 27.1457 55.4046 27.1457H54.9403C54.2696 27.1457 53.8053 26.8362 53.5474 26.2687C53.2378 25.6496 53.0831 24.9273 53.0831 23.9987V10.4822H50.452V10.1726H50.4004Z" fill="#362918"/>
<path d="M59.9961 18.7387C59.9961 17.8101 60.0993 16.9331 60.254 16.1076C60.4088 15.2822 60.6668 14.4567 61.0279 13.7345C61.389 13.0122 61.8017 12.3416 62.3176 11.7741C62.8335 11.2066 63.4526 10.7939 64.1749 10.4327C64.8971 10.1232 65.7226 9.91683 66.6512 9.91683C68.6116 9.86524 70.2109 10.5359 71.3975 11.8772C72.5841 13.2186 73.1515 15.0242 73.1515 17.191H71.1395C71.1395 16.7267 71.0364 16.1592 70.8816 15.5917C70.7268 15.0242 70.572 14.4052 70.3141 13.7861C70.0561 13.167 69.7982 12.5479 69.4887 12.0836C69.1791 11.5677 68.7664 11.155 68.2505 10.8454C67.7346 10.5359 67.2187 10.3811 66.5996 10.3811C65.9805 10.3811 65.5678 10.4843 65.1551 10.7423C64.6908 11.0002 64.3297 11.3098 64.0201 11.7741C63.7106 12.1868 63.4526 12.7027 63.1947 13.2186C62.9367 13.7345 62.782 14.302 62.6272 14.9211C62.4724 15.5401 62.3692 16.1076 62.2661 16.6235C62.1629 17.1394 62.1113 17.6553 62.0597 18.1712V18.5324C62.0597 19.4094 62.0597 20.2348 62.1629 21.0087C62.2661 21.7825 62.3692 22.5048 62.6272 23.2786C62.8851 24.0525 63.1431 24.6716 63.5042 25.1875C63.8653 25.7034 64.3297 26.1161 64.9487 26.4256C65.5678 26.7352 66.2901 26.8899 67.0639 26.8899C67.8378 26.8899 68.0957 26.7868 68.6632 26.5804C69.2307 26.374 69.7466 26.1161 70.2625 25.7034C70.7784 25.2906 71.2943 24.8263 71.7586 24.2072C72.2229 23.5882 72.5325 22.9175 72.7904 22.1952H73.1515C72.9452 22.9175 72.6872 23.5366 72.3261 24.1557C71.965 24.7747 71.5522 25.239 71.0879 25.6002C70.6236 25.9613 70.1593 26.3224 69.6434 26.5804C69.1275 26.8383 68.6116 27.0447 68.0957 27.1479C67.5798 27.2511 67.1155 27.3542 66.6512 27.3542C65.3099 27.3542 64.1233 26.9415 63.0915 26.1677C62.0597 25.3938 61.2858 24.362 60.7699 23.0723C60.254 21.7825 59.9961 20.3896 59.9961 18.8935V18.7387ZM71.6554 16.7783L71.2427 17.2426L61.4406 17.3974V16.9331L71.6554 16.8299V16.7783Z" fill="#362918"/>
<path d="M81.4082 1.0423C82.698 0.887532 83.8329 0.835938 84.9163 0.835938V20.8528C84.9163 23.5871 85.0711 25.2896 85.329 25.9087C85.5354 26.373 85.8965 26.6825 86.3608 26.8373H81.7693C82.3368 26.6309 82.6464 26.373 82.8011 25.9603C83.0591 25.2896 83.2139 23.5871 83.2139 20.8528V7.02673C83.2139 4.1377 83.1107 2.48682 82.8011 2.02251C82.7495 1.81615 82.5948 1.60979 82.3368 1.45502C82.0789 1.24866 81.7693 1.09389 81.4082 1.0423Z" fill="#362918"/>
<path d="M93.946 27.1967C92.6562 27.1967 91.5213 26.784 90.541 26.0101C89.5608 25.2363 88.787 24.1529 88.3227 22.8631C87.8584 21.5734 87.5488 20.1289 87.5488 18.5296C87.5488 16.9303 87.8068 15.4858 88.2711 14.196C88.7354 12.9063 89.4577 11.8745 90.4379 11.1006C91.4181 10.3268 92.5531 9.91406 93.8428 9.91406C95.1326 9.91406 96.2675 10.3268 97.2477 11.1006C98.228 11.8745 99.0018 12.9063 99.4661 14.2476C99.982 15.5374 100.24 17.0335 100.24 18.6328C100.24 20.2321 99.982 21.6766 99.5177 22.9663C99.0534 24.2561 98.2795 25.2879 97.3509 26.0617C96.4223 26.8356 95.2357 27.2483 93.946 27.2483V27.1967ZM95.6485 10.7395C95.1326 10.3784 94.5135 10.172 93.7912 10.172C93.069 10.172 92.5015 10.3784 91.934 10.7395C91.4181 11.1006 90.9538 11.5649 90.6442 12.1324C90.3347 12.6999 90.0767 13.3706 89.8704 14.1444C89.664 14.9183 89.5092 15.6405 89.4577 16.3628C89.4061 17.0851 89.3545 17.8073 89.3545 18.5296C89.3545 19.2518 89.3545 20.0257 89.4577 20.748C89.5608 21.4702 89.664 22.2441 89.922 22.9663C90.1799 23.6886 90.3863 24.4108 90.7474 24.9783C91.1085 25.5458 91.5213 26.0101 92.0372 26.3713C92.6046 26.7324 93.1721 26.9388 93.8944 26.9388C94.6167 26.9388 94.823 26.8356 95.2357 26.6292C95.6485 26.4228 96.0096 26.1649 96.3191 25.8554C96.6287 25.5458 96.8866 25.1331 97.093 24.6688C97.2993 24.2045 97.5057 23.7402 97.6605 23.2243C97.8152 22.7084 97.9184 22.1925 98.0216 21.625C98.1248 21.0575 98.1764 20.5416 98.228 20.0257C98.2795 19.5098 98.2795 18.9939 98.2795 18.478C98.2795 17.9621 98.2795 16.9819 98.1764 16.2596C98.0732 15.5374 97.97 14.7635 97.7121 14.0413C97.4541 13.319 97.2477 12.5967 96.8866 12.0293C96.5771 11.4618 96.1128 10.9974 95.5969 10.6363V10.7395H95.6485Z" fill="#362918"/>
<path d="M108.084 27.1998C106.846 27.1998 105.762 26.7871 104.834 26.0132C103.905 25.1878 103.234 24.156 102.718 22.9178C102.202 21.6797 101.996 20.2867 101.996 18.739C101.996 17.1913 102.099 16.3143 102.357 15.2825C102.615 14.2507 102.976 13.3221 103.492 12.4967C104.008 11.6712 104.627 11.0521 105.453 10.6394C106.278 10.1751 107.207 9.96875 108.238 9.96875C109.27 9.96875 109.012 9.96875 109.477 10.0719C109.941 10.1751 110.457 10.2783 110.973 10.4846C111.489 10.691 111.953 10.949 112.263 11.3101C112.624 11.6712 112.778 12.1355 112.778 12.5998C112.778 13.0641 112.469 13.5285 111.85 13.5285C111.231 13.5285 111.592 13.5285 111.437 13.4253C111.282 13.3221 111.231 13.2705 111.128 13.1673C111.024 13.0641 110.973 12.9094 110.921 12.8062C110.87 12.703 110.818 12.5482 110.715 12.3419C110.612 12.1355 110.56 12.0323 110.508 11.9292C110.25 11.3617 109.993 10.8974 109.631 10.5878C109.322 10.2783 108.858 10.0719 108.238 10.0719C107.619 10.0719 107.155 10.1751 106.639 10.4331C106.175 10.691 105.762 11.0521 105.453 11.4649C105.143 11.8776 104.885 12.3935 104.679 12.961C104.472 13.5285 104.318 14.0959 104.163 14.7666C104.06 15.4373 103.957 16.0564 103.905 16.6239C103.853 17.1913 103.853 17.8104 103.853 18.4295C103.853 19.4097 103.905 20.2867 104.06 21.2154C104.214 22.144 104.472 22.9694 104.782 23.8465C105.091 24.6719 105.607 25.3941 106.226 25.9101C106.846 26.4259 107.568 26.6839 108.393 26.6839C110.199 26.6839 111.54 25.7553 112.417 23.898H112.675C111.695 26.0648 110.147 27.1482 107.981 27.1482H108.084V27.1998Z" fill="#362918"/>
<path d="M114.529 23.0726C114.529 22.5051 114.632 21.9376 114.89 21.4733C115.148 21.009 115.458 20.6479 115.87 20.3383C116.283 20.0288 116.747 19.7193 117.263 19.4613C117.779 19.2034 118.347 18.9454 118.914 18.6875C119.533 18.4295 120.101 18.1715 120.668 17.862C121.236 17.5525 121.803 17.2429 122.422 16.8302C122.99 16.4175 123.506 15.9532 123.918 15.4373V14.4055C123.918 14.0959 123.918 13.7864 123.815 13.3737C123.815 12.961 123.712 12.6514 123.609 12.3419C123.506 12.0323 123.402 11.7744 123.248 11.4649C123.093 11.1553 122.938 10.949 122.732 10.7942C122.525 10.6394 122.267 10.4846 121.958 10.3815C121.648 10.2783 121.287 10.2783 120.926 10.2783C120.41 10.2783 119.946 10.4846 119.533 10.691C119.12 10.8974 118.811 11.1553 118.605 11.4649C118.398 11.7744 118.192 12.0839 117.985 12.4451C117.779 12.8062 117.624 13.1157 117.521 13.3737C117.418 13.6316 117.212 13.8896 117.005 14.0959C116.799 14.3023 116.593 14.4055 116.335 14.4055C116.077 14.4055 115.819 14.3023 115.664 14.1475C115.509 13.9928 115.458 13.6832 115.458 13.3221C115.458 12.8062 115.664 12.2903 116.025 11.8776C116.386 11.4649 116.902 11.0521 117.47 10.7942C118.037 10.5362 118.656 10.3299 119.275 10.1751C119.894 10.0203 120.513 9.96875 121.081 9.96875C122.371 9.96875 123.454 10.4331 124.383 11.3617C125.208 12.3419 125.621 13.6832 125.621 15.4889V21.886C125.621 24.0528 125.724 25.4457 125.93 26.0132C126.085 26.4259 126.446 26.7355 126.962 26.8387H125.002C124.847 26.8387 124.744 26.7871 124.589 26.7355C124.434 26.6839 124.331 26.6323 124.228 26.5291C124.125 26.4259 124.073 26.3228 123.97 26.1164C123.867 25.9616 123.815 25.7553 123.764 25.4973C123.712 25.2394 123.712 24.9814 123.712 24.6203V23.4337C123.454 23.8464 122.887 24.4139 122.01 25.033C121.184 25.6521 120.41 26.1164 119.791 26.3744C118.037 27.045 116.696 27.045 115.767 26.3744C114.839 25.7037 114.426 24.6203 114.426 23.0726H114.529ZM116.438 23.0726C116.438 24.8267 117.057 25.7037 118.295 25.8069C119.275 25.9101 120.41 25.4973 121.803 24.6203C122.732 24.0012 123.402 23.4337 123.815 22.8147V15.9016C123.506 16.4175 123.041 16.8818 122.525 17.2945C121.958 17.7072 121.442 18.0684 120.926 18.3263C120.41 18.5843 119.843 18.8422 119.327 19.1518C118.759 19.4613 118.295 19.7708 117.882 20.0804C117.47 20.3899 117.108 20.8026 116.851 21.3185C116.593 21.8344 116.438 22.4019 116.438 23.0726Z" fill="#362918"/>
<path d="M128.047 1.0423C129.337 0.887532 130.472 0.835938 131.555 0.835938V20.8528C131.555 23.5871 131.71 25.2896 131.968 25.9087C132.174 26.373 132.535 26.6825 133 26.8373H128.408C128.976 26.6309 129.285 26.373 129.44 25.9603C129.698 25.2896 129.853 23.5871 129.853 20.8528V7.02673C129.853 4.1377 129.749 2.48682 129.44 2.02251C129.388 1.81615 129.233 1.60979 128.976 1.45502C128.718 1.24866 128.408 1.09389 128.047 1.0423Z" fill="#362918"/>
<path d="M31.8341 38.4474V38.6021H30.0801V36.0742H31.7825V36.229H30.2864V37.2092H31.6278V37.364H30.2864V38.3958H31.8341V38.4474Z" fill="#362918"/>
<path d="M36.4744 36.125L35.3394 38.6529H35.133L33.998 36.125H34.2044L35.2362 38.395L36.268 36.125H36.4744Z" fill="#362918"/>
<path d="M40.6544 38.4474V38.6021H38.9004V36.0742H40.6029V36.229H39.1068V37.2092H40.4481V37.364H39.1068V38.3958H40.6544V38.4474Z" fill="#362918"/>
<path d="M45.3527 36.125V38.6529H45.1979L43.4954 36.4345V38.6529H43.2891V36.125H43.4438L45.1463 38.3434V36.125H45.3527Z" fill="#362918"/>
<path d="M48.704 36.2798H47.7754V36.125H49.7874V36.2798H48.8588V38.6529H48.6524V36.2798H48.704Z" fill="#362918"/>
<path d="M51.952 38.2911L52.0552 38.1364C52.2099 38.3427 52.5711 38.4459 52.8806 38.4459C53.3965 38.4459 53.6029 38.2396 53.6029 37.93C53.6029 37.1562 52.0036 37.6205 52.0036 36.6918C52.0036 35.7632 52.2615 36.0212 52.8806 36.0212C53.4997 36.0212 53.4481 36.1244 53.6545 36.2275V36.3823C53.3965 36.2275 53.1386 36.1759 52.8806 36.1759C52.3647 36.1759 52.1583 36.3823 52.1583 36.6918C52.1583 37.4657 53.7576 37.0014 53.7576 37.93C53.7576 38.8586 53.4481 38.6007 52.829 38.6007C52.2099 38.6007 52.1068 38.4459 51.9004 38.2395H51.952V38.2911Z" fill="#362918"/>
<path d="M56.542 38.4985V38.6533L56.3872 39.1692H56.2324L56.3356 38.6533C56.284 38.6533 56.2324 38.6017 56.2324 38.4985C56.2324 38.3953 56.284 38.3438 56.3872 38.3438C56.4904 38.3438 56.542 38.3953 56.542 38.4985Z" fill="#362918"/>
<path d="M61.8055 38.2911L61.9087 38.1364C62.0634 38.3427 62.4246 38.4459 62.7341 38.4459C63.25 38.4459 63.4564 38.2396 63.4564 37.93C63.4564 37.1562 61.8571 37.6205 61.8571 36.6918C61.8571 35.7632 62.115 36.0212 62.7341 36.0212C63.3532 36.0212 63.3016 36.1244 63.508 36.2275V36.3823C63.25 36.2275 62.9921 36.1759 62.7341 36.1759C62.2182 36.1759 62.0119 36.3823 62.0119 36.6918C62.0119 37.4657 63.6111 37.0014 63.6111 37.93C63.6111 38.8586 63.3016 38.6007 62.6825 38.6007C62.0634 38.6007 61.9603 38.4459 61.7539 38.2395H61.8055V38.2911Z" fill="#362918"/>
<path d="M66.2402 36.125H66.4466V38.6529H66.2402V36.125Z" fill="#362918"/>
<path d="M71.7099 38.6529V36.4861L70.6265 38.2918H70.5233L69.4399 36.4861V38.6529H69.2852V36.125H69.4399L70.5749 38.0854L71.7099 36.125H71.8647V38.6529H71.7099Z" fill="#362918"/>
<path d="M76.6655 36.9512C76.6655 37.4671 76.3044 37.7767 75.6337 37.7767H74.9114V38.6021H74.7051V36.0742H75.6337C76.2528 36.0742 76.6655 36.3838 76.6655 36.9512ZM76.5107 36.9512C76.5107 36.5385 76.2012 36.2806 75.6853 36.2806H74.963V37.6735H75.6853C76.2528 37.6735 76.5107 37.4156 76.5107 37.0028V36.9512Z" fill="#362918"/>
<path d="M79.2949 36.125H79.5013V38.4981H80.9458V38.6529H79.2949V36.125Z" fill="#362918"/>
<path d="M83.3711 36.125H83.5775V38.6529H83.3711V36.125Z" fill="#362918"/>
<path d="M86.6204 36.2798V37.3632H87.9618V37.5179H86.6204V38.6529H86.4141V36.125H88.1165V36.2798H86.6204Z" fill="#362918"/>
<path d="M90.6953 36.125H90.9017V38.6529H90.6953V36.125Z" fill="#362918"/>
<path d="M95.4943 38.4474V38.6021H93.7402V36.0742H95.4427V36.229H93.9466V37.2092H95.2879V37.364H93.9466V38.3958H95.4943V38.4474Z" fill="#362918"/>
<path d="M98.123 36.125H99.1033C99.9287 36.125 100.445 36.6409 100.445 37.4147C100.445 38.1886 99.8771 38.7045 99.1033 38.7045H98.123V36.1766V36.125ZM99.1548 38.4465C99.8771 38.4465 100.341 37.9822 100.341 37.3632C100.341 36.7441 99.8771 36.2798 99.1548 36.2798H98.3294V38.4981H99.1548V38.4465Z" fill="#362918"/>
<path d="M102.818 38.4985C102.818 38.3953 102.87 38.3438 102.973 38.3438C103.076 38.3438 103.128 38.3953 103.128 38.4985C103.128 38.6017 103.076 38.6533 102.973 38.6533C102.87 38.6533 102.818 38.6017 102.818 38.4985Z" fill="#362918"/>
</svg>
