<svg width="133" height="39" viewBox="0 0 133 39" fill="none" xmlns="http://www.w3.org/2000/svg">
<path d="M5.98444 26.3619C4.74628 26.3619 3.66289 25.9492 2.73427 25.1753C1.80565 24.4015 1.08339 23.3181 0.670671 22.0799C0.206362 20.7902 0 19.4489 0 17.9012C0 16.3535 0.10318 15.4764 0.36113 14.4446C0.61908 13.4128 0.98021 12.4842 1.49611 11.6588C2.01201 10.8333 2.63109 10.2142 3.45653 9.80152C4.28197 9.33721 5.21059 9.13086 6.24239 9.13086C7.27419 9.13086 7.01624 9.13086 7.48055 9.23404C7.94486 9.33722 8.46076 9.4404 8.97666 9.64676C9.49256 9.85312 9.95687 10.1111 10.2664 10.4722C10.6275 10.8333 10.7823 11.2976 10.7823 11.7619C10.7823 12.2263 10.4728 12.6906 9.85369 12.6906C9.2346 12.6906 9.59574 12.6906 9.44097 12.5874C9.33779 12.5358 9.23461 12.4326 9.13143 12.3294C9.02825 12.2263 8.97666 12.0715 8.92507 11.9683C8.87348 11.8651 8.82189 11.7104 8.71871 11.504C8.61553 11.2976 8.56394 11.1945 8.51235 11.0913C8.2544 10.5238 7.99645 10.0595 7.63532 9.74994C7.27419 9.4404 6.86147 9.23404 6.24239 9.23404C5.62331 9.23404 5.10741 9.33722 4.6431 9.59517C4.17879 9.85312 3.76607 10.2142 3.45653 10.627C3.14699 11.0397 2.88904 11.5556 2.68268 12.1231C2.47632 12.6906 2.32155 13.2581 2.16678 13.9287C2.0636 14.5994 1.96042 15.2185 1.90883 15.786C1.90883 16.3535 1.80565 16.9725 1.80565 17.5916C1.80565 18.5718 1.90883 19.4488 2.01201 20.3775C2.16678 21.3061 2.42473 22.1315 2.73427 23.0086C3.0954 23.834 3.55971 24.5563 4.17879 25.0722C4.79787 25.5881 5.52013 25.846 6.34557 25.846C8.15122 25.846 9.49255 24.9174 10.3696 23.0602H10.6275C9.64733 25.2269 8.09963 26.3103 5.93285 26.3103L5.98444 26.3619Z" fill="#362918"/>
<path d="M13.4149 10.9364C13.2601 10.6784 13.1569 10.5237 13.0538 10.4205C13.0538 10.3173 12.899 10.1625 12.7442 10.0078C12.5894 9.85298 12.4863 9.69821 12.3315 9.59503C12.1767 9.49185 12.022 9.44026 11.8672 9.38867H15.6333L15.4785 16.1985V20.7385C15.4785 21.1512 15.5817 21.6155 15.6848 22.1314C15.788 22.6473 15.8912 23.1116 16.0976 23.5243C16.2523 23.937 16.5103 24.3498 16.7166 24.7109C16.9746 25.072 17.2841 25.3816 17.6969 25.5879C18.1096 25.7943 18.5223 25.8975 18.9866 25.8975C19.4509 25.8975 20.1732 25.6911 20.7407 25.3816C21.3082 25.0204 21.7725 24.6593 22.1336 24.195C22.4947 23.7307 22.8043 23.2148 23.1138 22.6989V16.7144C23.1138 16.147 23.1138 15.4763 23.217 14.8056V12.5357C23.217 12.2261 23.217 11.9166 23.1138 11.7102C23.0106 11.5039 23.0106 11.2975 22.9074 11.0395C22.4947 10.4205 22.2368 10.0077 22.0304 9.80139C21.8241 9.64662 21.6177 9.49185 21.4113 9.44026H25.1258L24.971 16.6629V20.1194C24.971 21.0996 24.971 22.0282 25.0742 22.8537C25.0742 23.6791 25.229 24.2466 25.3838 24.6593C25.7965 25.33 26.364 25.7427 27.0346 25.9491C25.4354 26.1554 24.1456 26.207 23.217 26.207V23.4727C22.7527 24.2982 22.1336 25.0204 21.4113 25.5879C20.6891 26.1554 19.8636 26.4134 18.935 26.4134C18.0064 26.4134 17.2841 26.2586 16.6135 25.8975C15.9428 25.5879 15.4269 25.1236 15.0142 24.5561C14.6015 23.9886 14.2919 23.318 14.1371 22.5957C13.9308 21.8734 13.8276 20.9964 13.8792 20.1194V12.742C13.8792 12.2261 13.7244 11.6586 13.5181 11.0395L13.4149 10.9364Z" fill="#362918"/>
<path d="M29.3024 10.6266C28.8897 9.95597 28.3738 9.54325 27.7031 9.33689C29.354 9.13053 30.6438 9.02734 31.4692 9.02734V13.4641C31.7787 12.1227 32.243 11.0394 32.9653 10.2139C33.6876 9.38848 34.5646 9.07894 35.648 9.18212C36.0607 9.18212 36.4734 9.38848 36.8345 9.64643C37.1957 9.95597 37.402 10.2655 37.3504 10.6266C37.3504 10.9878 37.1957 11.2973 36.9893 11.5553C36.783 11.8132 36.525 11.9164 36.2671 11.9164C36.0091 11.9164 35.9059 11.8132 35.8027 11.6584C35.648 11.5037 35.5448 11.3489 35.39 11.1941C35.2353 11.0394 35.0805 10.8846 34.8225 10.7298C34.5646 10.575 34.2035 10.5235 33.7907 10.5235C33.378 10.5235 33.2748 10.6266 33.0685 10.833C32.8621 11.0394 32.6558 11.2973 32.501 11.6584C32.3462 12.0196 32.1915 12.3807 32.0883 12.7934C31.9851 13.2061 31.8819 13.6704 31.8303 14.1863C31.8303 14.7538 31.7271 15.2181 31.6756 15.6825C31.6756 16.1468 31.5724 16.6627 31.5724 17.2302V20.6867C31.5724 23.1114 31.6756 24.6075 31.9335 25.1234C32.1399 25.5877 32.501 25.8457 32.9653 25.9489H28.3738C28.8897 25.8457 29.2508 25.5361 29.4056 25.0718C29.6635 24.4527 29.8183 22.8019 29.8183 20.1708C29.8183 17.5397 29.8183 19.0358 29.8183 18.262V13.4641C29.8183 13.103 29.8183 12.7418 29.8183 12.3291C29.8183 11.9164 29.8183 11.6068 29.7151 11.2973C29.612 10.9878 29.612 10.7814 29.5088 10.575H29.354L29.3024 10.6266Z" fill="#362918"/>
<path d="M37.9723 22.2347C37.9723 21.6672 38.0755 21.0997 38.3335 20.6354C38.5398 20.1711 38.9009 19.81 39.3137 19.5004C39.7264 19.1909 40.1907 18.8814 40.7066 18.6234C41.2225 18.3655 41.79 18.1075 42.3575 17.8496C42.9765 17.5916 43.544 17.3337 44.1115 17.0241C44.679 16.7662 45.2465 16.405 45.8656 15.9923C46.4331 15.5796 46.949 15.1153 47.3617 14.5994V13.5676C47.3617 13.2581 47.3617 12.9485 47.2585 12.5358C47.1553 12.1231 47.1553 11.8135 47.0522 11.504C46.949 11.1945 46.8458 10.9365 46.691 10.627C46.5363 10.3174 46.3815 10.1111 46.1751 9.95629C45.9688 9.80152 45.7108 9.64675 45.4013 9.54357C45.0917 9.44039 44.7306 9.44039 44.3695 9.44039C43.8536 9.44039 43.3893 9.64676 42.9765 9.85312C42.5638 10.0595 42.2543 10.3174 42.0479 10.627C41.8416 10.9365 41.6352 11.246 41.4288 11.6072C41.2225 11.9683 41.0677 12.2778 40.9645 12.5358C40.8614 12.8453 40.655 13.0517 40.4486 13.2581C40.2423 13.4644 40.0359 13.5676 39.778 13.5676C39.52 13.5676 39.2621 13.4644 39.1073 13.3096C38.9525 13.1549 38.9009 12.8453 38.9009 12.4842C38.9009 11.9683 39.1073 11.4524 39.4684 11.0397C39.8296 10.5754 40.3455 10.2142 40.9129 9.95629C41.4804 9.69834 42.0995 9.49199 42.7186 9.33722C43.3377 9.18245 43.9568 9.13086 44.5242 9.13086C45.814 9.13086 46.8974 9.59517 47.826 10.5238C48.6514 11.504 49.0642 12.8453 49.0642 14.651V21.0481C49.0642 23.2149 49.1673 24.6078 49.3737 25.1753C49.5285 25.5881 49.8896 25.8976 50.4055 26.0008H48.4967C48.3419 26.0008 48.2387 25.9492 48.084 25.8976C47.9292 25.846 47.826 25.7944 47.7228 25.6912C47.6196 25.5881 47.5681 25.4849 47.4649 25.2785C47.3617 25.1237 47.3101 24.9174 47.2585 24.6594C47.2069 24.4015 47.2069 24.1435 47.2069 23.7824V22.5958C46.949 23.0086 46.3815 23.5761 45.5045 24.1951C44.679 24.8142 43.9052 25.2785 43.2861 25.5365C41.532 26.2071 40.1907 26.2071 39.2621 25.5365C38.3334 24.8658 37.8691 23.7824 37.8691 22.2347H37.9723ZM39.8811 22.2347C39.8811 23.9888 40.5002 24.8658 41.7384 24.969C42.7186 25.0722 43.8536 24.6594 45.2465 23.7824C46.1751 23.1633 46.8458 22.5958 47.2585 21.9768V15.0637C46.949 15.5796 46.5363 16.0439 45.9688 16.4566C45.4013 16.8694 44.8854 17.2305 44.3695 17.4884C43.8536 17.7464 43.2861 18.0043 42.7702 18.3139C42.2027 18.6234 41.7384 18.933 41.3257 19.2425C40.9129 19.552 40.6034 19.9648 40.2939 20.4807C40.0359 20.9966 39.8811 21.564 39.8811 22.2347Z" fill="#362918"/>
<path d="M50.4004 9.33862C50.9679 9.33862 51.4838 9.23544 51.9481 9.08067C52.4124 8.9259 52.7219 8.71954 53.0315 8.41C53.2894 8.10046 53.5474 7.84251 53.7021 7.48138C53.8569 7.17184 54.0117 6.75913 54.1149 6.29482C54.218 5.83051 54.2696 5.41779 54.3212 5.00507C54.3728 4.59235 54.4244 4.17962 54.4244 3.61213C54.4244 3.56054 54.8371 3.56055 54.8371 3.56055V9.13227H58.6548V9.64817H54.8371V23.3195C54.8371 24.7124 55.2498 25.3831 56.0237 25.3831C56.7975 25.3831 57.0039 25.1252 57.5198 24.6093C58.0357 24.0934 58.3452 23.5259 58.4484 22.9584L58.6548 23.1647C58.5 23.5775 58.2937 23.9902 58.0873 24.3513C57.8809 24.7124 57.6746 24.9704 57.5198 25.1767C57.365 25.3831 57.1587 25.5895 56.9523 25.7442C56.746 25.899 56.5396 26.0022 56.3848 26.1054C56.2301 26.2085 56.0753 26.2601 55.8689 26.2601C55.6626 26.2601 55.5078 26.3117 55.4046 26.3117H54.9403C54.2696 26.3117 53.8053 26.0022 53.5474 25.4347C53.2378 24.8156 53.0831 24.0934 53.0831 23.1647V9.64817H50.452V9.33862H50.4004Z" fill="#362918"/>
<path d="M59.9961 17.9028C59.9961 16.9742 60.0993 16.0971 60.254 15.2717C60.4088 14.4462 60.6668 13.6208 61.0279 12.8985C61.389 12.1763 61.8017 11.5056 62.3176 10.9381C62.8335 10.3706 63.4526 9.95792 64.1749 9.59679C64.8971 9.28725 65.7226 9.08089 66.6512 9.08089C68.6116 9.0293 70.2109 9.69997 71.3975 11.0413C72.5841 12.3827 73.1515 14.1883 73.1515 16.3551H71.1395C71.1395 15.8908 71.0364 15.3233 70.8816 14.7558C70.7268 14.1883 70.572 13.5692 70.3141 12.9501C70.0561 12.3311 69.7982 11.712 69.4887 11.2477C69.1791 10.7318 68.7664 10.3191 68.2505 10.0095C67.7346 9.69997 67.2187 9.5452 66.5996 9.5452C65.9805 9.5452 65.5678 9.64838 65.1551 9.90633C64.6908 10.1643 64.3297 10.4738 64.0201 10.9381C63.7106 11.3509 63.4526 11.8667 63.1947 12.3826C62.9367 12.8985 62.782 13.466 62.6272 14.0851C62.4724 14.7042 62.3692 15.2717 62.2661 15.7876C62.1629 16.3035 62.1113 16.8194 62.0597 17.3353V17.6964C62.0597 18.5734 62.0597 19.3989 62.1629 20.1727C62.2661 20.9466 62.3692 21.6688 62.6272 22.4427C62.8851 23.2165 63.1431 23.8356 63.5042 24.3515C63.8653 24.8674 64.3297 25.2801 64.9487 25.5897C65.5678 25.8992 66.2901 26.054 67.0639 26.054C67.8378 26.054 68.0957 25.9508 68.6632 25.7445C69.2307 25.5381 69.7466 25.2801 70.2625 24.8674C70.7784 24.4547 71.2943 23.9904 71.7586 23.3713C72.2229 22.7522 72.5325 22.0816 72.7904 21.3593H73.1515C72.9452 22.0816 72.6872 22.7006 72.3261 23.3197C71.965 23.9388 71.5522 24.4031 71.0879 24.7642C70.6236 25.1254 70.1593 25.4865 69.6434 25.7445C69.1275 26.0024 68.6116 26.2088 68.0957 26.3119C67.5798 26.4151 67.1155 26.5183 66.6512 26.5183C65.3099 26.5183 64.1233 26.1056 63.0915 25.3317C62.0597 24.5579 61.2858 23.5261 60.7699 22.2363C60.254 20.9466 59.9961 19.5537 59.9961 18.0575V17.9028ZM71.6554 15.9424L71.2427 16.4067L61.4406 16.5614V16.0971L71.6554 15.9939V15.9424Z" fill="#362918"/>
<path d="M81.4082 0.206365C82.698 0.0515947 83.8329 0 84.9163 0V20.0169C84.9163 22.7512 85.0711 24.4536 85.329 25.0727C85.5354 25.537 85.8965 25.8466 86.3608 26.0014H81.7693C82.3368 25.795 82.6464 25.537 82.8011 25.1243C83.0591 24.4537 83.2139 22.7512 83.2139 20.0169V6.1908C83.2139 3.30176 83.1107 1.65088 82.8011 1.18657C82.7495 0.980211 82.5948 0.773856 82.3368 0.619086C82.0789 0.412726 81.7693 0.257955 81.4082 0.206365Z" fill="#362918"/>
<path d="M93.946 26.3627C92.6562 26.3627 91.5213 25.95 90.541 25.1761C89.5608 24.4023 88.787 23.3189 88.3227 22.0292C87.8584 20.7394 87.5488 19.2949 87.5488 17.6956C87.5488 16.0963 87.8068 14.6518 88.2711 13.362C88.7354 12.0723 89.4577 11.0405 90.4379 10.2666C91.4181 9.4928 92.5531 9.08008 93.8428 9.08008C95.1326 9.08008 96.2675 9.4928 97.2477 10.2666C98.228 11.0405 99.0018 12.0723 99.4661 13.4136C99.982 14.7034 100.24 16.1995 100.24 17.7988C100.24 19.3981 99.982 20.8426 99.5177 22.1323C99.0534 23.4221 98.2795 24.4539 97.3509 25.2277C96.4223 26.0016 95.2357 26.4143 93.946 26.4143V26.3627ZM95.6485 9.90552C95.1326 9.54439 94.5135 9.33803 93.7912 9.33803C93.069 9.33803 92.5015 9.54439 91.934 9.90552C91.4181 10.2667 90.9538 10.731 90.6442 11.2984C90.3347 11.8659 90.0767 12.5366 89.8704 13.3105C89.664 14.0843 89.5092 14.8066 89.4577 15.5288C89.4061 16.2511 89.3545 16.9733 89.3545 17.6956C89.3545 18.4179 89.3545 19.1917 89.4577 19.914C89.5608 20.6362 89.664 21.4101 89.922 22.1323C90.1799 22.8546 90.3863 23.5769 90.7474 24.1443C91.1085 24.7118 91.5213 25.1761 92.0372 25.5373C92.6046 25.8984 93.1721 26.1048 93.8944 26.1048C94.6167 26.1048 94.823 26.0016 95.2357 25.7952C95.6485 25.5889 96.0096 25.3309 96.3191 25.0214C96.6287 24.7118 96.8866 24.2991 97.093 23.8348C97.2993 23.3705 97.5057 22.9062 97.6605 22.3903C97.8152 21.8744 97.9184 21.3585 98.0216 20.791C98.1248 20.2235 98.1764 19.7076 98.228 19.1917C98.2795 18.6758 98.2795 18.1599 98.2795 17.644C98.2795 17.1281 98.2795 16.1479 98.1764 15.4256C98.0732 14.7034 97.97 13.9295 97.7121 13.2073C97.4541 12.485 97.2477 11.7628 96.8866 11.1953C96.5771 10.6278 96.1128 10.1635 95.5969 9.80233V9.90552H95.6485Z" fill="#362918"/>
<path d="M108.084 26.3619C106.846 26.3619 105.762 25.9492 104.834 25.1753C103.905 24.3499 103.234 23.3181 102.718 22.0799C102.202 20.8418 101.996 19.4489 101.996 17.9012C101.996 16.3535 102.099 15.4764 102.357 14.4446C102.615 13.4128 102.976 12.4842 103.492 11.6588C104.008 10.8333 104.627 10.2142 105.453 9.80152C106.278 9.33721 107.207 9.13086 108.238 9.13086C109.27 9.13086 109.012 9.13086 109.477 9.23404C109.941 9.33722 110.457 9.4404 110.973 9.64676C111.489 9.85312 111.953 10.1111 112.263 10.4722C112.624 10.8333 112.778 11.2976 112.778 11.7619C112.778 12.2263 112.469 12.6906 111.85 12.6906C111.231 12.6906 111.592 12.6906 111.437 12.5874C111.282 12.4842 111.231 12.4326 111.128 12.3294C111.024 12.2263 110.973 12.0715 110.921 11.9683C110.87 11.8651 110.818 11.7104 110.715 11.504C110.612 11.2976 110.56 11.1945 110.508 11.0913C110.25 10.5238 109.993 10.0595 109.631 9.74994C109.322 9.4404 108.858 9.23404 108.238 9.23404C107.619 9.23404 107.155 9.33722 106.639 9.59517C106.175 9.85312 105.762 10.2142 105.453 10.627C105.143 11.0397 104.885 11.5556 104.679 12.1231C104.472 12.6906 104.318 13.2581 104.163 13.9287C104.06 14.5994 103.957 15.2185 103.905 15.786C103.853 16.3535 103.853 16.9725 103.853 17.5916C103.853 18.5718 103.905 19.4488 104.06 20.3775C104.214 21.3061 104.472 22.1315 104.782 23.0086C105.091 23.834 105.607 24.5563 106.226 25.0722C106.846 25.5881 107.568 25.846 108.393 25.846C110.199 25.846 111.54 24.9174 112.417 23.0602H112.675C111.695 25.2269 110.147 26.3103 107.981 26.3103H108.084V26.3619Z" fill="#362918"/>
<path d="M114.529 22.2347C114.529 21.6672 114.632 21.0997 114.89 20.6354C115.148 20.1711 115.458 19.81 115.87 19.5004C116.283 19.1909 116.747 18.8814 117.263 18.6234C117.779 18.3655 118.347 18.1075 118.914 17.8496C119.533 17.5916 120.101 17.3337 120.668 17.0241C121.236 16.7146 121.803 16.405 122.422 15.9923C122.99 15.5796 123.506 15.1153 123.918 14.5994V13.5676C123.918 13.2581 123.918 12.9485 123.815 12.5358C123.815 12.1231 123.712 11.8135 123.609 11.504C123.506 11.1945 123.402 10.9365 123.248 10.627C123.093 10.3174 122.938 10.1111 122.732 9.95629C122.525 9.80152 122.267 9.64675 121.958 9.54357C121.648 9.44039 121.287 9.44039 120.926 9.44039C120.41 9.44039 119.946 9.64676 119.533 9.85312C119.12 10.0595 118.811 10.3174 118.605 10.627C118.398 10.9365 118.192 11.246 117.985 11.6072C117.779 11.9683 117.624 12.2778 117.521 12.5358C117.418 12.7937 117.212 13.0517 117.005 13.2581C116.799 13.4644 116.593 13.5676 116.335 13.5676C116.077 13.5676 115.819 13.4644 115.664 13.3096C115.509 13.1549 115.458 12.8453 115.458 12.4842C115.458 11.9683 115.664 11.4524 116.025 11.0397C116.386 10.627 116.902 10.2142 117.47 9.95629C118.037 9.69834 118.656 9.49199 119.275 9.33722C119.894 9.18245 120.513 9.13086 121.081 9.13086C122.371 9.13086 123.454 9.59517 124.383 10.5238C125.208 11.504 125.621 12.8453 125.621 14.651V21.0481C125.621 23.2149 125.724 24.6078 125.93 25.1753C126.085 25.5881 126.446 25.8976 126.962 26.0008H125.002C124.847 26.0008 124.744 25.9492 124.589 25.8976C124.434 25.846 124.331 25.7944 124.228 25.6912C124.125 25.5881 124.073 25.4849 123.97 25.2785C123.867 25.1237 123.815 24.9174 123.764 24.6594C123.712 24.4015 123.712 24.1435 123.712 23.7824V22.5958C123.454 23.0086 122.887 23.5761 122.01 24.1951C121.184 24.8142 120.41 25.2785 119.791 25.5365C118.037 26.2071 116.696 26.2071 115.767 25.5365C114.839 24.8658 114.426 23.7824 114.426 22.2347H114.529ZM116.438 22.2347C116.438 23.9888 117.057 24.8658 118.295 24.969C119.275 25.0722 120.41 24.6594 121.803 23.7824C122.732 23.1633 123.402 22.5958 123.815 21.9768V15.0637C123.506 15.5796 123.041 16.0439 122.525 16.4566C121.958 16.8694 121.442 17.2305 120.926 17.4884C120.41 17.7464 119.843 18.0043 119.327 18.3139C118.759 18.6234 118.295 18.933 117.882 19.2425C117.47 19.552 117.108 19.9648 116.851 20.4807C116.593 20.9966 116.438 21.564 116.438 22.2347Z" fill="#362918"/>
<path d="M128.047 0.206365C129.337 0.0515947 130.472 0 131.555 0V20.0169C131.555 22.7512 131.71 24.4536 131.968 25.0727C132.174 25.537 132.535 25.8466 133 26.0014H128.408C128.976 25.795 129.285 25.537 129.44 25.1243C129.698 24.4537 129.853 22.7512 129.853 20.0169V6.1908C129.853 3.30176 129.749 1.65088 129.44 1.18657C129.388 0.980211 129.233 0.773856 128.976 0.619086C128.718 0.412726 128.408 0.257955 128.047 0.206365Z" fill="#362918"/>
<path d="M31.8341 37.6095V37.7642H30.0801V35.2363H31.7825V35.3911H30.2864V36.3713H31.6278V36.5261H30.2864V37.5579H31.8341V37.6095Z" fill="#362918"/>
<path d="M36.4744 35.2891L35.3394 37.817H35.133L33.998 35.2891H34.2044L35.2362 37.559L36.268 35.2891H36.4744Z" fill="#362918"/>
<path d="M40.6544 37.6095V37.7642H38.9004V35.2363H40.6029V35.3911H39.1068V36.3713H40.4481V36.5261H39.1068V37.5579H40.6544V37.6095Z" fill="#362918"/>
<path d="M45.3527 35.2891V37.817H45.1979L43.4954 35.5986V37.817H43.2891V35.2891H43.4438L45.1463 37.5074V35.2891H45.3527Z" fill="#362918"/>
<path d="M48.704 35.4438H47.7754V35.2891H49.7874V35.4438H48.8588V37.817H48.6524V35.4438H48.704Z" fill="#362918"/>
<path d="M51.952 37.4552L52.0552 37.3004C52.2099 37.5068 52.5711 37.61 52.8806 37.61C53.3965 37.61 53.6029 37.4036 53.6029 37.0941C53.6029 36.3202 52.0036 36.7845 52.0036 35.8559C52.0036 34.9273 52.2615 35.1852 52.8806 35.1852C53.4997 35.1852 53.4481 35.2884 53.6545 35.3916V35.5464C53.3965 35.3916 53.1386 35.34 52.8806 35.34C52.3647 35.34 52.1583 35.5464 52.1583 35.8559C52.1583 36.6298 53.7576 36.1655 53.7576 37.0941C53.7576 38.0227 53.4481 37.7647 52.829 37.7647C52.2099 37.7647 52.1068 37.61 51.9004 37.4036H51.952V37.4552Z" fill="#362918"/>
<path d="M56.542 37.6606V37.8154L56.3872 38.3313H56.2324L56.3356 37.8154C56.284 37.8154 56.2324 37.7638 56.2324 37.6606C56.2324 37.5574 56.284 37.5059 56.3872 37.5059C56.4904 37.5059 56.542 37.5574 56.542 37.6606Z" fill="#362918"/>
<path d="M61.8055 37.4552L61.9087 37.3004C62.0634 37.5068 62.4246 37.61 62.7341 37.61C63.25 37.61 63.4564 37.4036 63.4564 37.0941C63.4564 36.3202 61.8571 36.7845 61.8571 35.8559C61.8571 34.9273 62.115 35.1852 62.7341 35.1852C63.3532 35.1852 63.3016 35.2884 63.508 35.3916V35.5464C63.25 35.3916 62.9921 35.34 62.7341 35.34C62.2182 35.34 62.0119 35.5464 62.0119 35.8559C62.0119 36.6298 63.6111 36.1655 63.6111 37.0941C63.6111 38.0227 63.3016 37.7647 62.6825 37.7647C62.0634 37.7647 61.9603 37.61 61.7539 37.4036H61.8055V37.4552Z" fill="#362918"/>
<path d="M66.2402 35.2891H66.4466V37.817H66.2402V35.2891Z" fill="#362918"/>
<path d="M71.7099 37.817V35.6502L70.6265 37.4558H70.5233L69.4399 35.6502V37.817H69.2852V35.2891H69.4399L70.5749 37.2495L71.7099 35.2891H71.8647V37.817H71.7099Z" fill="#362918"/>
<path d="M76.6655 36.1134C76.6655 36.6293 76.3044 36.9388 75.6337 36.9388H74.9114V37.7642H74.7051V35.2363H75.6337C76.2528 35.2363 76.6655 35.5459 76.6655 36.1134ZM76.5107 36.1134C76.5107 35.7006 76.2012 35.4427 75.6853 35.4427H74.963V36.8356H75.6853C76.2528 36.8356 76.5107 36.5777 76.5107 36.1649V36.1134Z" fill="#362918"/>
<path d="M79.2949 35.2891H79.5013V37.6622H80.9458V37.817H79.2949V35.2891Z" fill="#362918"/>
<path d="M83.3711 35.2891H83.5775V37.817H83.3711V35.2891Z" fill="#362918"/>
<path d="M86.6204 35.4438V36.5272H87.9618V36.682H86.6204V37.817H86.4141V35.2891H88.1165V35.4438H86.6204Z" fill="#362918"/>
<path d="M90.6953 35.2891H90.9017V37.817H90.6953V35.2891Z" fill="#362918"/>
<path d="M95.4943 37.6095V37.7642H93.7402V35.2363H95.4427V35.3911H93.9466V36.3713H95.2879V36.5261H93.9466V37.5579H95.4943V37.6095Z" fill="#362918"/>
<path d="M98.123 35.2891H99.1033C99.9287 35.2891 100.445 35.805 100.445 36.5788C100.445 37.3527 99.8771 37.8686 99.1033 37.8686H98.123V35.3406V35.2891ZM99.1548 37.6106C99.8771 37.6106 100.341 37.1463 100.341 36.5272C100.341 35.9081 99.8771 35.4438 99.1548 35.4438H98.3294V37.6622H99.1548V37.6106Z" fill="#362918"/>
<path d="M102.818 37.6606C102.818 37.5574 102.87 37.5059 102.973 37.5059C103.076 37.5059 103.128 37.5574 103.128 37.6606C103.128 37.7638 103.076 37.8154 102.973 37.8154C102.87 37.8154 102.818 37.7638 102.818 37.6606Z" fill="#362918"/>
</svg>
