<svg width="133" height="27" viewBox="0 0 133 27" fill="none" xmlns="http://www.w3.org/2000/svg">
<path d="M5.98449 26.363C4.74632 26.363 3.66292 25.9503 2.73429 25.1764C1.80567 24.351 1.0834 23.3192 0.670677 22.081C0.206363 20.7913 0 19.3983 0 17.9022C0 16.4061 0.103181 15.4775 0.361133 14.4456C0.619085 13.4138 0.980218 12.4852 1.49612 11.6598C2.01203 10.8343 2.63111 10.2152 3.45656 9.80251C4.282 9.3382 5.21063 9.13184 6.24244 9.13184C7.27425 9.13184 7.01629 9.13183 7.48061 9.23502C7.94492 9.3382 8.46082 9.44138 8.97673 9.64774C9.49263 9.8541 9.95694 10.1121 10.2665 10.4732C10.6276 10.8343 10.7824 11.2986 10.7824 11.7629C10.7824 12.2273 10.4728 12.64 9.85376 12.64C9.23468 12.64 9.59581 12.64 9.44104 12.5368C9.33786 12.4852 9.23468 12.382 9.1315 12.2789C9.02832 12.1241 8.97673 12.0209 8.92514 11.9177C8.87355 11.8145 8.77037 11.6598 8.71878 11.4534C8.66718 11.247 8.564 11.1439 8.51241 11.0407C8.25446 10.4732 7.99651 10.0089 7.63538 9.69933C7.32584 9.38979 6.86152 9.18343 6.24244 9.18343C5.62335 9.18343 5.10745 9.28661 4.64313 9.54456C4.17882 9.80251 3.7661 10.1636 3.45656 10.5764C3.14701 10.9891 2.88906 11.505 2.6827 12.0725C2.47634 12.64 2.32157 13.2075 2.1668 13.8781C2.06362 14.5488 1.96043 15.1679 1.90884 15.7354C1.90884 16.3029 1.90884 16.922 1.90884 17.5411C1.90884 18.4697 1.90885 19.3983 2.11521 20.3269C2.26998 21.204 2.52793 22.081 2.83747 22.9581C3.14701 23.7835 3.66292 24.5058 4.282 25.0217C4.90109 25.5376 5.62335 25.7955 6.4488 25.7955C8.25446 25.7955 9.59581 24.8669 10.4728 23.0097H10.7308C9.75058 25.1764 8.20287 26.2598 6.03608 26.2598V26.363H5.98449Z" fill="#040504"/>
<path d="M13.4134 10.8856C13.2587 10.6277 13.1555 10.4729 13.0523 10.3697C13.0523 10.2665 12.8975 10.1117 12.7428 9.95697C12.588 9.8022 12.4848 9.64743 12.33 9.54425C12.1753 9.44107 12.0205 9.38948 11.8657 9.33789H15.6318L15.477 16.1478V20.7394C15.477 21.1521 15.5802 21.6164 15.6834 22.1323C15.7866 22.6482 15.8898 23.1125 16.0961 23.5252C16.2509 23.938 16.5089 24.3507 16.7152 24.7118C16.9732 25.073 17.2827 25.3825 17.6954 25.5889C18.1082 25.7952 18.5209 25.8984 18.9852 25.8984C19.4495 25.8984 20.1718 25.692 20.7393 25.3825C21.3068 25.0214 21.7711 24.6602 22.0806 24.1959C22.3902 23.7316 22.7513 23.2157 23.0608 22.6998V16.7153C23.0608 16.1478 23.0608 15.4771 23.164 14.8065V12.5365C23.164 12.227 23.164 11.9174 23.0608 11.711C22.9577 11.5047 22.9577 11.2983 22.8545 11.0404C22.4418 10.4213 22.1838 10.0086 21.9774 9.8022C21.7711 9.64743 21.5647 9.49266 21.3584 9.44107H25.0729L24.9181 16.6637V20.1203C24.9181 21.1005 24.9181 22.0291 25.0213 22.8546C25.0213 23.68 25.176 24.2475 25.3308 24.6602C25.7435 25.3309 26.311 25.7952 26.9301 25.95C25.3308 26.1564 24.0411 26.2079 23.1124 26.2079V23.4737C22.6481 24.2991 22.029 25.0214 21.3068 25.5889C20.5845 26.1564 19.7591 26.4143 18.882 26.3627C18.005 26.3627 17.2311 26.2079 16.5604 25.8468C15.8898 25.5373 15.3739 25.073 14.9611 24.5055C14.5484 23.938 14.2389 23.2673 14.0841 22.545C13.8777 21.7712 13.7746 20.9457 13.8262 20.0687V12.6913C13.8262 12.1754 13.6714 11.6079 13.465 10.9888V10.8856H13.4134Z" fill="#040504"/>
<path d="M29.3034 10.6276C28.8907 9.95695 28.3748 9.54423 27.7041 9.33787C29.355 9.1315 30.6448 9.02832 31.4702 9.02832V13.4651C31.7797 12.0722 32.2441 11.0403 32.9663 10.2149C33.6886 9.38945 34.5656 9.07991 35.649 9.18309C36.0617 9.18309 36.4745 9.38945 36.8356 9.6474C37.1967 9.95695 37.4031 10.2665 37.3515 10.6276C37.3515 10.9888 37.1967 11.2983 36.9904 11.5562C36.784 11.8142 36.5261 11.9174 36.2681 11.9174C36.0102 11.9174 35.907 11.8142 35.8038 11.6594C35.649 11.5047 35.5458 11.3499 35.3911 11.1951C35.2363 11.0403 35.0815 10.8856 34.8236 10.7308C34.5656 10.576 34.2045 10.5244 33.7918 10.5244C33.379 10.5244 33.2759 10.6276 33.0695 10.834C32.8631 11.0403 32.6568 11.2983 32.502 11.6594C32.3472 12.0206 32.1925 12.3817 32.0893 12.7944C31.9861 13.2071 31.8829 13.6715 31.8313 14.1874C31.8313 14.7549 31.7281 15.2192 31.6766 15.6835C31.6766 16.1478 31.5734 16.6637 31.5734 17.2312V20.6877C31.5734 23.1125 31.6766 24.557 31.9345 25.1245C32.1409 25.5888 32.502 25.8468 32.9663 25.95H28.3748C28.8907 25.8468 29.2002 25.5372 29.4066 25.0729C29.6645 24.4023 29.8193 22.803 29.8193 20.1718C29.8193 17.5407 29.8193 19.0368 29.8193 18.263V13.4651C29.8193 13.104 29.8193 12.7428 29.8193 12.3301C29.8193 11.9174 29.8193 11.6078 29.7161 11.2983C29.7161 11.0403 29.6129 10.7824 29.5098 10.576H29.355L29.3034 10.6276Z" fill="#040504"/>
<path d="M37.9704 22.236C37.9704 21.6685 38.0736 21.101 38.3316 20.6367C38.5379 20.1723 38.8991 19.8112 39.3118 19.5017C39.7245 19.1921 40.1888 18.8826 40.7047 18.6246C41.2206 18.3667 41.7881 18.1087 42.3556 17.8508C42.9747 17.5928 43.5422 17.3349 44.1097 17.0253C44.6772 16.7674 45.2447 16.4062 45.8122 15.9935C46.3797 15.5808 46.8956 15.1165 47.3083 14.6006V13.5688C47.3083 13.2592 47.3083 12.9497 47.2051 12.537C47.1019 12.1242 47.1019 11.8147 46.9988 11.5052C46.8956 11.2472 46.7924 10.9377 46.6376 10.6281C46.4829 10.3186 46.3281 10.1122 46.1217 9.95745C45.9154 9.80268 45.6574 9.64791 45.3479 9.54472C45.0383 9.44154 44.6772 9.44155 44.3161 9.44155C43.8002 9.44155 43.3358 9.64791 42.9231 9.85427C42.5104 10.0606 42.2009 10.3702 41.9945 10.6281C41.7881 10.9377 41.5818 11.2472 41.3754 11.6083C41.169 11.9695 41.0143 12.279 40.9111 12.537C40.8079 12.7949 40.6016 13.0529 40.3952 13.2592C40.1888 13.4656 39.9825 13.5688 39.7245 13.5688C39.4666 13.5688 39.2086 13.4656 39.0538 13.3108C38.8991 13.1561 38.8475 12.8981 38.8475 12.537C38.8475 12.0211 39.0538 11.5052 39.415 11.0924C39.7761 10.6281 40.292 10.267 40.8595 10.009C41.427 9.75108 42.0461 9.54472 42.6652 9.38995C43.2843 9.23518 43.9033 9.18359 44.4708 9.18359C45.7606 9.18359 46.844 9.64791 47.721 10.5765C48.5465 11.5567 48.9592 12.8981 48.9592 14.7038V21.101C48.9592 23.2678 49.0624 24.6607 49.2687 25.2282C49.4235 25.6409 49.7846 25.9505 50.3005 26.0536H48.3401C48.2369 26.0536 48.0822 26.0021 47.9274 25.9505C47.7726 25.9505 47.6694 25.8473 47.5663 25.7441C47.4631 25.6409 47.4115 25.5377 47.3083 25.3314C47.2051 25.1766 47.1535 24.9702 47.1535 24.7123C47.1535 24.4543 47.1019 24.1964 47.1019 23.8353V22.6487C46.844 23.0614 46.2765 23.6289 45.3995 24.248C44.5224 24.8671 43.8002 25.3314 43.1811 25.5893C41.427 26.26 40.0856 26.26 39.157 25.5893C38.2284 24.9187 37.8157 23.8353 37.8157 22.2875H37.9704V22.236ZM39.8793 22.236C39.8793 23.99 40.4984 24.8671 41.7365 24.9702C42.7168 25.0734 43.9033 24.6607 45.2447 23.7837C46.1733 23.1646 46.844 22.5971 47.2567 21.978V15.0649C46.9472 15.5808 46.5344 16.0451 45.967 16.4578C45.3995 16.8706 44.8836 17.2317 44.3677 17.4896C43.8518 17.7476 43.2843 18.0056 42.7683 18.3667C42.2009 18.6762 41.7365 18.9858 41.3238 19.2953C40.9111 19.6048 40.55 20.0176 40.292 20.5335C40.0341 21.0494 39.8793 21.6169 39.8793 22.2875V22.236Z" fill="#040504"/>
<path d="M50.3523 9.3377C50.9198 9.3377 51.4357 9.23452 51.9 9.07975C52.3643 8.92498 52.6739 8.71861 52.9834 8.40907C53.2414 8.09953 53.4993 7.84158 53.6541 7.48044C53.8089 7.1709 53.9636 6.75818 54.0668 6.29386C54.17 5.82955 54.2216 5.41683 54.2732 5.0041C54.2732 4.59138 54.3763 4.12707 54.3763 3.61116C54.3763 3.55957 54.7891 3.55957 54.7891 3.55957V9.13133H58.6068V9.64724H54.7891V23.3187C54.7891 24.7116 55.2018 25.3823 55.9757 25.3823C56.7495 25.3823 56.9559 25.1244 57.4718 24.6084C57.9877 24.0925 58.2972 23.5251 58.4004 22.9576L58.6068 23.1639C58.452 23.5766 58.2456 23.9894 58.0393 24.3505C57.8329 24.7116 57.6265 24.9696 57.4718 25.1759C57.317 25.3823 57.1106 25.5887 56.9043 25.7434C56.6979 25.8982 56.4915 26.0014 56.3884 26.1046C56.2852 26.2078 56.0788 26.2593 55.8725 26.2593C55.6661 26.2593 55.5113 26.3109 55.4082 26.3109H54.9438C54.2732 26.3109 53.8088 26.0014 53.5509 25.4339C53.2414 24.8148 53.1382 24.0925 53.1382 23.1123V9.59565H50.5071V9.28611H50.3523V9.3377Z" fill="#040504"/>
<path d="M59.9996 17.9019C59.9996 16.9732 60.1028 16.0962 60.2575 15.2708C60.4123 14.4453 60.6703 13.6199 61.0314 12.8976C61.3925 12.1237 61.8052 11.5047 62.3212 10.9372C62.8371 10.3697 63.4561 9.95695 64.1784 9.59582C64.9007 9.28628 65.7261 9.07991 66.6547 9.07991C68.6152 9.02832 70.2145 9.69899 71.4011 11.0403C72.5876 12.3817 73.1551 14.1874 73.1551 16.3542H71.1431C71.1431 15.8898 70.9883 15.3224 70.8852 14.7549C70.782 14.1874 70.5756 13.5683 70.3177 12.9492C70.0597 12.2785 69.8018 11.711 69.4406 11.2467C69.1311 10.7308 68.7184 10.3181 68.2025 10.0085C67.6866 9.69899 67.1707 9.49263 66.5516 9.49263C65.9325 9.49263 65.5198 9.59582 65.107 9.85377C64.6427 10.1117 64.2816 10.4213 63.972 10.8856C63.6625 11.2983 63.4046 11.8142 63.1466 12.3301C62.8886 12.846 62.7339 13.4135 62.5791 14.0326C62.4243 14.6517 62.3212 15.2192 62.218 15.7351C62.1148 16.251 62.0632 16.7669 62.0116 17.2828V17.6439C62.0116 18.521 62.0116 19.3464 62.1148 20.1203C62.218 20.8941 62.3212 21.6164 62.5791 22.3902C62.7855 23.1641 63.095 23.7832 63.4561 24.2991C63.8173 24.815 64.2816 25.2277 64.9007 25.5372C65.5198 25.8468 66.242 26.0016 67.0159 26.0016C67.7897 26.0016 68.0477 25.8984 68.6152 25.692C69.1827 25.4857 69.6986 25.2277 70.2145 24.815C70.7304 24.4538 71.2463 23.9379 71.7106 23.3189C72.1749 22.6998 72.4845 22.0291 72.7424 21.3068H73.1035C72.8972 22.0291 72.6392 22.6482 72.2781 23.2673C71.917 23.8348 71.5042 24.3507 71.0399 24.7118C70.5756 25.0729 70.1113 25.4341 69.5954 25.692C69.0795 25.95 68.5636 26.1563 68.0477 26.2595C67.5318 26.3627 67.0675 26.4143 66.6032 26.4143C65.2618 26.4143 64.0752 26.0016 63.0434 25.2277C62.0116 24.4538 61.2378 23.422 60.7219 22.1323C60.2059 20.8425 59.948 19.4496 59.948 17.9535L59.9996 17.9019ZM71.659 15.9414L71.2463 16.4057L61.4441 16.5605V16.0962L71.659 15.993V15.9414Z" fill="#040504"/>
<path d="M81.4097 0.206358C82.6994 0.0515872 83.8344 0 84.9178 0V20.0171C84.9178 22.7514 85.0726 24.4538 85.3305 25.0729C85.5369 25.5372 85.898 25.8468 86.3623 26.0016H81.7708C82.3383 25.7952 82.6478 25.5372 82.8026 25.1245C83.0606 24.4538 83.2153 22.7514 83.2153 20.0171V6.19085C83.2153 3.30178 83.0606 1.65089 82.8026 1.18658C82.751 0.980219 82.5962 0.773854 82.3383 0.619083C82.0803 0.412721 81.7708 0.257949 81.4097 0.206358Z" fill="#040504"/>
<path d="M93.946 26.3629C92.6563 26.3629 91.5213 25.9501 90.5411 25.1763C89.5609 24.4024 88.787 23.3706 88.3227 22.0293C87.8584 20.6879 87.5488 19.295 87.5488 17.6957C87.5488 16.0964 87.8068 14.6518 88.2711 13.3621C88.7354 12.0723 89.4577 11.0405 90.4379 10.2667C91.4181 9.49279 92.5531 9.08008 93.8429 9.08008C95.1326 9.08008 96.2676 9.49279 97.2478 10.2667C98.228 11.0405 99.0019 12.0723 99.4662 13.4137C99.9821 14.7034 100.24 16.1995 100.24 17.7989C100.24 19.3982 99.9821 20.8427 99.5178 22.1324C99.0535 23.4222 98.3312 24.454 97.351 25.2279C96.3708 26.0017 95.2358 26.4144 93.9976 26.4144H93.946V26.3629ZM95.6485 9.90552C95.1326 9.54439 94.5135 9.33803 93.8429 9.33803C93.1722 9.33803 92.5531 9.54439 91.9856 9.90552C91.4697 10.2667 91.0054 10.731 90.6958 11.2985C90.3863 11.866 90.1283 12.5366 89.922 13.3105C89.7156 14.0843 89.5609 14.8066 89.5093 15.5289C89.4577 16.2511 89.4061 16.9734 89.4061 17.6957C89.4061 18.4179 89.4061 19.1918 89.5093 19.9141C89.6124 20.6363 89.7672 21.4102 89.9736 22.1324C90.1799 22.8547 90.4895 23.577 90.799 24.1445C91.1086 24.712 91.5729 25.1763 92.0888 25.5374C92.6563 25.8985 93.2238 26.1049 93.946 26.1049C94.6683 26.1049 94.8747 26.0017 95.2874 25.7954C95.7001 25.589 96.0612 25.331 96.3708 25.0215C96.6803 24.712 96.9383 24.2992 97.1446 23.8349C97.351 23.3706 97.5574 22.9063 97.7121 22.3904C97.8669 21.8745 97.9701 21.3586 98.0733 20.7911C98.1764 20.2236 98.228 19.7077 98.2796 19.1918C98.3312 18.6759 98.3312 18.16 98.3312 17.6441C98.3312 17.1282 98.3312 16.148 98.228 15.4257C98.1249 14.7034 98.0217 13.9296 97.7637 13.2073C97.5058 12.485 97.2994 11.7628 96.9383 11.1953C96.6287 10.6278 96.1644 10.1635 95.6485 9.80234V9.90552Z" fill="#040504"/>
<path d="M108.082 26.363C106.844 26.363 105.76 25.9503 104.832 25.1764C103.903 24.351 103.181 23.3192 102.768 22.081C102.355 20.8429 102.097 19.3983 102.097 17.9022C102.097 16.4061 102.201 15.4775 102.459 14.4456C102.716 13.4138 103.078 12.4852 103.594 11.6598C104.109 10.8343 104.729 10.2152 105.554 9.80251C106.379 9.3382 107.308 9.13184 108.34 9.13184C109.372 9.13184 109.114 9.13183 109.578 9.23502C110.042 9.3382 110.558 9.44138 111.074 9.64774C111.59 9.8541 112.054 10.1121 112.364 10.4732C112.725 10.8343 112.88 11.2986 112.88 11.7629C112.88 12.2273 112.57 12.64 111.951 12.64C111.332 12.64 111.693 12.64 111.538 12.5368C111.384 12.4336 111.332 12.382 111.229 12.2789C111.126 12.1241 111.074 12.0209 111.023 11.9177C110.971 11.8145 110.868 11.6598 110.816 11.4534C110.713 11.247 110.661 11.1439 110.61 11.0407C110.352 10.4732 110.094 10.0089 109.733 9.69933C109.423 9.38979 108.959 9.18343 108.34 9.18343C107.721 9.18343 107.205 9.28661 106.741 9.54456C106.276 9.80251 105.864 10.1636 105.554 10.5764C105.244 10.9891 104.986 11.505 104.78 12.0725C104.574 12.5884 104.419 13.2075 104.264 13.8781C104.161 14.5488 104.058 15.1679 104.006 15.7354C104.006 16.3029 103.955 16.922 103.955 17.5411C103.955 18.4697 104.006 19.3983 104.161 20.3269C104.316 21.204 104.574 22.081 104.883 22.9581C105.193 23.7835 105.709 24.5058 106.328 25.0217C106.947 25.5376 107.669 25.7955 108.495 25.7955C110.3 25.7955 111.642 24.8669 112.519 23.0097H112.777C111.796 25.1764 110.249 26.2598 108.082 26.2598V26.363Z" fill="#040504"/>
<path d="M114.531 22.236C114.531 21.6685 114.634 21.101 114.892 20.6367C115.098 20.1723 115.459 19.8112 115.872 19.5017C116.285 19.1921 116.749 18.8826 117.265 18.6246C117.781 18.3667 118.348 18.1087 118.916 17.8508C119.535 17.5928 120.103 17.3349 120.67 17.0253C121.238 16.7158 121.805 16.4062 122.372 15.9935C122.94 15.5808 123.456 15.1165 123.869 14.6006V13.5688C123.869 13.2592 123.869 12.9497 123.765 12.537C123.765 12.1242 123.662 11.8147 123.559 11.5052C123.456 11.2472 123.353 10.9377 123.198 10.6281C123.043 10.3186 122.888 10.1122 122.682 9.95745C122.476 9.80268 122.218 9.64791 121.908 9.54472C121.599 9.44154 121.238 9.44155 120.876 9.44155C120.36 9.44155 119.896 9.64791 119.483 9.85427C119.071 10.0606 118.761 10.3702 118.555 10.6281C118.348 10.9377 118.142 11.2472 117.936 11.6083C117.729 11.9695 117.575 12.279 117.471 12.537C117.368 12.7949 117.162 13.0529 116.955 13.2592C116.749 13.4656 116.543 13.5688 116.285 13.5688C116.027 13.5688 115.769 13.4656 115.614 13.3108C115.459 13.1561 115.408 12.8981 115.408 12.537C115.408 12.0211 115.614 11.5052 115.975 11.0924C116.336 10.6281 116.852 10.267 117.42 10.009C117.987 9.75108 118.606 9.54472 119.225 9.38995C119.845 9.23518 120.464 9.18359 121.031 9.18359C122.321 9.18359 123.404 9.64791 124.281 10.5765C125.107 11.5567 125.52 12.8981 125.52 14.7038V21.101C125.52 23.2678 125.623 24.6607 125.829 25.2282C125.984 25.6409 126.345 25.9505 126.861 26.0536H124.9C124.797 26.0536 124.642 26.0021 124.488 25.9505C124.333 25.9505 124.23 25.8473 124.127 25.7441C124.023 25.6409 123.972 25.5377 123.869 25.3314C123.765 25.1766 123.714 24.9702 123.714 24.7123C123.714 24.4543 123.662 24.1964 123.662 23.8353V22.6487C123.404 23.0614 122.837 23.6289 121.96 24.248C121.134 24.8671 120.36 25.3314 119.741 25.5893C117.987 26.26 116.646 26.26 115.717 25.5893C114.789 24.9187 114.376 23.8353 114.376 22.2875H114.531V22.236ZM116.44 22.236C116.44 23.99 117.059 24.8671 118.297 24.9702C119.277 25.0734 120.464 24.6607 121.805 23.7837C122.734 23.1646 123.404 22.5971 123.817 21.978V15.0649C123.507 15.5808 123.095 16.0451 122.527 16.4578C121.96 16.8706 121.444 17.2317 120.928 17.4896C120.412 17.7476 119.845 18.0056 119.329 18.3667C118.761 18.6762 118.297 18.9858 117.884 19.2953C117.471 19.6048 117.11 20.0176 116.852 20.5335C116.594 21.0494 116.44 21.6169 116.44 22.2875V22.236Z" fill="#040504"/>
<path d="M128.047 0.206358C129.337 0.0515872 130.472 0 131.556 0V20.0171C131.556 22.7514 131.71 24.4538 131.968 25.0729C132.175 25.5372 132.536 25.8468 133 26.0016H128.409C128.976 25.7952 129.286 25.5372 129.44 25.1245C129.698 24.4538 129.853 22.7514 129.853 20.0171V6.19085C129.853 3.30178 129.698 1.65089 129.44 1.18658C129.389 0.980219 129.234 0.773854 128.976 0.619083C128.718 0.412721 128.408 0.257949 128.047 0.206358Z" fill="#040504"/>
</svg>
